<mxfile host="app.diagrams.net" modified="2021-03-31T20:56:15.099Z" agent="5.0 (Windows)" etag="0bxYg7_gr0uVi9wQqRXt" version="14.4.9" type="github">
  <diagram id="dsMQ6YcTPDb408nm1QtT" name="Page-1">
    <mxGraphModel dx="1038" dy="547" grid="0" gridSize="10" guides="1" tooltips="1" connect="1" arrows="1" fold="1" page="0" pageScale="1" pageWidth="850" pageHeight="1100" math="0" shadow="0">
      <root>
        <mxCell id="0" />
        <mxCell id="1" parent="0" />
        <mxCell id="Y4A-1n8Vv7i9clA8c0de-3" value="" style="edgeStyle=orthogonalEdgeStyle;rounded=0;orthogonalLoop=1;jettySize=auto;html=1;" edge="1" parent="1" source="Y4A-1n8Vv7i9clA8c0de-1" target="Y4A-1n8Vv7i9clA8c0de-2">
          <mxGeometry relative="1" as="geometry" />
        </mxCell>
        <UserObject label="&lt;div style=&quot;color: rgb(0 , 0 , 0) ; font-family: &amp;#34;helvetica&amp;#34; ; font-size: 13px ; font-style: normal ; font-weight: 400 ; letter-spacing: normal ; text-align: center ; text-indent: 0px ; text-transform: none ; word-spacing: 0px ; background-color: rgb(255 , 255 , 255)&quot;&gt;agent.ActionOutputStream&lt;/div&gt;&lt;div style=&quot;color: rgb(0 , 0 , 0) ; font-family: &amp;#34;helvetica&amp;#34; ; font-size: 13px ; font-style: normal ; font-weight: 400 ; letter-spacing: normal ; text-align: center ; text-indent: 0px ; text-transform: none ; word-spacing: 0px ; background-color: rgb(255 , 255 , 255)&quot;&gt;.onNext()&lt;/div&gt;" treeRoot="1" id="Y4A-1n8Vv7i9clA8c0de-1">
          <mxCell style="whiteSpace=wrap;html=1;align=center;treeFolding=1;treeMoving=1;newEdgeStyle={&quot;edgeStyle&quot;:&quot;elbowEdgeStyle&quot;,&quot;startArrow&quot;:&quot;none&quot;,&quot;endArrow&quot;:&quot;none&quot;};fontSize=13;" vertex="1" parent="1">
            <mxGeometry x="120" y="130" width="164" height="60" as="geometry" />
          </mxCell>
        </UserObject>
        <UserObject label="&lt;div&gt;agent.Agent&lt;br&gt;&lt;/div&gt;&lt;div&gt;processMessage()&lt;/div&gt;" id="Y4A-1n8Vv7i9clA8c0de-2">
          <mxCell style="whiteSpace=wrap;html=1;align=center;treeFolding=1;treeMoving=1;newEdgeStyle={&quot;edgeStyle&quot;:&quot;elbowEdgeStyle&quot;,&quot;startArrow&quot;:&quot;none&quot;,&quot;endArrow&quot;:&quot;none&quot;};fontSize=13;" vertex="1" parent="1">
            <mxGeometry x="364" y="130" width="164" height="60" as="geometry" />
          </mxCell>
        </UserObject>
        <mxCell id="Y4A-1n8Vv7i9clA8c0de-4" value="" style="edgeStyle=orthogonalEdgeStyle;rounded=0;orthogonalLoop=1;jettySize=auto;html=1;" edge="1" target="Y4A-1n8Vv7i9clA8c0de-5" source="Y4A-1n8Vv7i9clA8c0de-2" parent="1">
          <mxGeometry relative="1" as="geometry">
            <mxPoint x="284" y="160" as="sourcePoint" />
          </mxGeometry>
        </mxCell>
        <UserObject label="&lt;div&gt;agent.state.&lt;/div&gt;&lt;div&gt;AgentState.&lt;/div&gt;&lt;div&gt;processMessage()&lt;/div&gt;" id="Y4A-1n8Vv7i9clA8c0de-5">
          <mxCell style="whiteSpace=wrap;html=1;align=center;treeFolding=1;treeMoving=1;newEdgeStyle={&quot;edgeStyle&quot;:&quot;elbowEdgeStyle&quot;,&quot;startArrow&quot;:&quot;none&quot;,&quot;endArrow&quot;:&quot;none&quot;};fontSize=13;fillColor=#d5e8d4;strokeColor=#82b366;" vertex="1" parent="1">
            <mxGeometry x="568" y="130" width="164" height="60" as="geometry" />
          </mxCell>
        </UserObject>
        <mxCell id="Y4A-1n8Vv7i9clA8c0de-6" value="" style="edgeStyle=orthogonalEdgeStyle;rounded=0;orthogonalLoop=1;jettySize=auto;html=1;" edge="1" target="Y4A-1n8Vv7i9clA8c0de-7" source="Y4A-1n8Vv7i9clA8c0de-2" parent="1">
          <mxGeometry relative="1" as="geometry">
            <mxPoint x="284" y="160" as="sourcePoint" />
            <Array as="points">
              <mxPoint x="493" y="230" />
            </Array>
          </mxGeometry>
        </mxCell>
        <mxCell id="Y4A-1n8Vv7i9clA8c0de-10" style="edgeStyle=orthogonalEdgeStyle;rounded=0;orthogonalLoop=1;jettySize=auto;html=1;exitX=1;exitY=0.5;exitDx=0;exitDy=0;" edge="1" parent="1" source="Y4A-1n8Vv7i9clA8c0de-7" target="Y4A-1n8Vv7i9clA8c0de-9">
          <mxGeometry relative="1" as="geometry" />
        </mxCell>
        <UserObject label="&lt;div&gt;agent.Agent&lt;br&gt;&lt;/div&gt;&lt;div&gt;changeState()&lt;/div&gt;" id="Y4A-1n8Vv7i9clA8c0de-7">
          <mxCell style="whiteSpace=wrap;html=1;align=center;treeFolding=1;treeMoving=1;newEdgeStyle={&quot;edgeStyle&quot;:&quot;elbowEdgeStyle&quot;,&quot;startArrow&quot;:&quot;none&quot;,&quot;endArrow&quot;:&quot;none&quot;};fontSize=13;" vertex="1" parent="1">
            <mxGeometry x="568" y="200" width="164" height="60" as="geometry" />
          </mxCell>
        </UserObject>
        <UserObject label="&lt;div&gt;agent.state.&lt;/div&gt;&lt;div&gt;AgentStateChange.&lt;br&gt;&lt;/div&gt;&lt;div&gt;postAction()&lt;/div&gt;" id="Y4A-1n8Vv7i9clA8c0de-9">
          <mxCell style="whiteSpace=wrap;html=1;align=center;treeFolding=1;treeMoving=1;newEdgeStyle={&quot;edgeStyle&quot;:&quot;elbowEdgeStyle&quot;,&quot;startArrow&quot;:&quot;none&quot;,&quot;endArrow&quot;:&quot;none&quot;};fontSize=13;" vertex="1" parent="1">
            <mxGeometry x="772" y="200" width="164" height="60" as="geometry" />
          </mxCell>
        </UserObject>
        <mxCell id="Y4A-1n8Vv7i9clA8c0de-11" style="edgeStyle=orthogonalEdgeStyle;rounded=0;orthogonalLoop=1;jettySize=auto;html=1;exitX=1;exitY=0.5;exitDx=0;exitDy=0;" edge="1" target="Y4A-1n8Vv7i9clA8c0de-12" source="Y4A-1n8Vv7i9clA8c0de-9" parent="1">
          <mxGeometry relative="1" as="geometry">
            <mxPoint x="732" y="230" as="sourcePoint" />
          </mxGeometry>
        </mxCell>
        <UserObject label="Consumer" id="Y4A-1n8Vv7i9clA8c0de-12">
          <mxCell style="whiteSpace=wrap;html=1;align=center;treeFolding=1;treeMoving=1;newEdgeStyle={&quot;edgeStyle&quot;:&quot;elbowEdgeStyle&quot;,&quot;startArrow&quot;:&quot;none&quot;,&quot;endArrow&quot;:&quot;none&quot;};fontSize=13;fillColor=#d5e8d4;strokeColor=#82b366;" vertex="1" parent="1">
            <mxGeometry x="976" y="200" width="164" height="60" as="geometry" />
          </mxCell>
        </UserObject>
        <mxCell id="Y4A-1n8Vv7i9clA8c0de-15" value="" style="edgeStyle=orthogonalEdgeStyle;rounded=0;orthogonalLoop=1;jettySize=auto;html=1;" edge="1" parent="1" source="Y4A-1n8Vv7i9clA8c0de-13" target="Y4A-1n8Vv7i9clA8c0de-14">
          <mxGeometry relative="1" as="geometry" />
        </mxCell>
        <UserObject label="&lt;div style=&quot;color: rgb(0 , 0 , 0) ; font-family: &amp;#34;helvetica&amp;#34; ; font-size: 13px ; font-style: normal ; font-weight: 400 ; letter-spacing: normal ; text-align: center ; text-indent: 0px ; text-transform: none ; word-spacing: 0px ; background-color: rgb(255 , 255 , 255)&quot;&gt;agent.state.&lt;/div&gt;&lt;div style=&quot;color: rgb(0 , 0 , 0) ; font-family: &amp;#34;helvetica&amp;#34; ; font-size: 13px ; font-style: normal ; font-weight: 400 ; letter-spacing: normal ; text-align: center ; text-indent: 0px ; text-transform: none ; word-spacing: 0px ; background-color: rgb(255 , 255 , 255)&quot;&gt;UnrecognizedState.&lt;br&gt;&lt;/div&gt;&lt;div style=&quot;color: rgb(0 , 0 , 0) ; font-family: &amp;#34;helvetica&amp;#34; ; font-size: 13px ; font-style: normal ; font-weight: 400 ; letter-spacing: normal ; text-align: center ; text-indent: 0px ; text-transform: none ; word-spacing: 0px ; background-color: rgb(255 , 255 , 255)&quot;&gt;.processMessage()&lt;/div&gt;" treeRoot="1" id="Y4A-1n8Vv7i9clA8c0de-13">
          <mxCell style="whiteSpace=wrap;html=1;align=center;treeFolding=1;treeMoving=1;newEdgeStyle={&quot;edgeStyle&quot;:&quot;elbowEdgeStyle&quot;,&quot;startArrow&quot;:&quot;none&quot;,&quot;endArrow&quot;:&quot;none&quot;};fontSize=13;" vertex="1" parent="1">
            <mxGeometry x="120" y="353" width="164" height="60" as="geometry" />
          </mxCell>
        </UserObject>
        <UserObject label="&lt;div style=&quot;color: rgb(0 , 0 , 0) ; font-family: &amp;#34;helvetica&amp;#34; ; font-size: 13px ; font-style: normal ; font-weight: 400 ; letter-spacing: normal ; text-align: center ; text-indent: 0px ; text-transform: none ; word-spacing: 0px ; background-color: rgb(255 , 255 , 255)&quot;&gt;agent.state.&lt;/div&gt;&lt;div style=&quot;color: rgb(0 , 0 , 0) ; font-family: &amp;#34;helvetica&amp;#34; ; font-size: 13px ; font-style: normal ; font-weight: 400 ; letter-spacing: normal ; text-align: center ; text-indent: 0px ; text-transform: none ; word-spacing: 0px ; background-color: rgb(255 , 255 , 255)&quot;&gt;UnrecognizedState.&lt;br&gt;&lt;/div&gt;&lt;div style=&quot;color: rgb(0 , 0 , 0) ; font-family: &amp;#34;helvetica&amp;#34; ; font-size: 13px ; font-style: normal ; font-weight: 400 ; letter-spacing: normal ; text-align: center ; text-indent: 0px ; text-transform: none ; word-spacing: 0px ; background-color: rgb(255 , 255 , 255)&quot;&gt;.processMessage()&lt;/div&gt;" id="Y4A-1n8Vv7i9clA8c0de-14">
          <mxCell style="whiteSpace=wrap;html=1;align=center;treeFolding=1;treeMoving=1;newEdgeStyle={&quot;edgeStyle&quot;:&quot;elbowEdgeStyle&quot;,&quot;startArrow&quot;:&quot;none&quot;,&quot;endArrow&quot;:&quot;none&quot;};fontSize=13;" vertex="1" parent="1">
            <mxGeometry x="364" y="353" width="164" height="60" as="geometry" />
          </mxCell>
        </UserObject>
        <mxCell id="Y4A-1n8Vv7i9clA8c0de-16" value="" style="edgeStyle=orthogonalEdgeStyle;rounded=0;orthogonalLoop=1;jettySize=auto;html=1;" edge="1" target="Y4A-1n8Vv7i9clA8c0de-17" source="Y4A-1n8Vv7i9clA8c0de-14" parent="1">
          <mxGeometry relative="1" as="geometry">
            <mxPoint x="284" y="383" as="sourcePoint" />
          </mxGeometry>
        </mxCell>
        <mxCell id="Y4A-1n8Vv7i9clA8c0de-18" style="edgeStyle=orthogonalEdgeStyle;rounded=0;orthogonalLoop=1;jettySize=auto;html=1;exitX=1;exitY=0.5;exitDx=0;exitDy=0;entryX=0.5;entryY=0;entryDx=0;entryDy=0;" edge="1" parent="1" source="Y4A-1n8Vv7i9clA8c0de-17" target="Y4A-1n8Vv7i9clA8c0de-17">
          <mxGeometry relative="1" as="geometry">
            <mxPoint x="653" y="344" as="targetPoint" />
            <Array as="points">
              <mxPoint x="752" y="383" />
              <mxPoint x="752" y="300" />
              <mxPoint x="650" y="300" />
            </Array>
          </mxGeometry>
        </mxCell>
        <UserObject label="&lt;div style=&quot;color: rgb(0 , 0 , 0) ; font-family: &amp;#34;helvetica&amp;#34; ; font-size: 13px ; font-style: normal ; font-weight: 400 ; letter-spacing: normal ; text-align: center ; text-indent: 0px ; text-transform: none ; word-spacing: 0px ; background-color: rgb(255 , 255 , 255)&quot;&gt;agent.state.&lt;/div&gt;&lt;div style=&quot;color: rgb(0 , 0 , 0) ; font-family: &amp;#34;helvetica&amp;#34; ; font-size: 13px ; font-style: normal ; font-weight: 400 ; letter-spacing: normal ; text-align: center ; text-indent: 0px ; text-transform: none ; word-spacing: 0px ; background-color: rgb(255 , 255 , 255)&quot;&gt;RecognizedState.&lt;br&gt;&lt;/div&gt;&lt;div style=&quot;color: rgb(0 , 0 , 0) ; font-family: &amp;#34;helvetica&amp;#34; ; font-size: 13px ; font-style: normal ; font-weight: 400 ; letter-spacing: normal ; text-align: center ; text-indent: 0px ; text-transform: none ; word-spacing: 0px ; background-color: rgb(255 , 255 , 255)&quot;&gt;.processMessage()&lt;/div&gt;" id="Y4A-1n8Vv7i9clA8c0de-17">
          <mxCell style="whiteSpace=wrap;html=1;align=center;treeFolding=1;treeMoving=1;newEdgeStyle={&quot;edgeStyle&quot;:&quot;elbowEdgeStyle&quot;,&quot;startArrow&quot;:&quot;none&quot;,&quot;endArrow&quot;:&quot;none&quot;};fontSize=13;" vertex="1" parent="1">
            <mxGeometry x="568" y="353" width="164" height="60" as="geometry" />
          </mxCell>
        </UserObject>
      </root>
    </mxGraphModel>
  </diagram>
</mxfile>
